<?xml version="1.0" encoding="utf-8"?>
<!-- Generated by IcoMoon.io -->
<!DOCTYPE svg PUBLIC "-//W3C//DTD SVG 1.1//EN" "http://www.w3.org/Graphics/SVG/1.1/DTD/svg11.dtd">
<svg version="1.1" xmlns="http://www.w3.org/2000/svg" xmlns:xlink="http://www.w3.org/1999/xlink" width="128" height="128" viewBox="0 0 128 128">
<path transform="scale(2)" d="M10.667 2.667h42.667q3.313 0 5.656 2.344t2.344 5.656v42.667q0 3.313-2.344 5.656t-5.656 2.344h-42.667q-3.313 0-5.656-2.344t-2.344-5.656v-42.667q0-3.313 2.344-5.656t5.656-2.344zM56 46.438l-13.333-13.333-22.896 22.896h33.563q1.104 0 1.885-0.781t0.781-1.885v-6.896zM53.333 8h-42.667q-1.104 0-1.885 0.781t-0.781 1.885v42.667q0 1.104 0.781 1.885t1.885 0.781h1.563l30.438-30.438 13.333 13.333v-28.229q0-1.104-0.781-1.885t-1.885-0.781zM21.333 13.333q3.313 0 5.656 2.344t2.344 5.656-2.344 5.656-5.656 2.344-5.656-2.344-2.344-5.656 2.344-5.656 5.656-2.344zM21.333 18.667q-1.104 0-1.885 0.781t-0.781 1.885 0.781 1.885 1.885 0.781 1.885-0.781 0.781-1.885-0.781-1.885-1.885-0.781z" fill="#000000"></path>
</svg>
