<?xml version="1.0" encoding="utf-8"?>
<!-- Generated by IcoMoon.io -->
<!DOCTYPE svg PUBLIC "-//W3C//DTD SVG 1.1//EN" "http://www.w3.org/Graphics/SVG/1.1/DTD/svg11.dtd">
<svg version="1.1" xmlns="http://www.w3.org/2000/svg" xmlns:xlink="http://www.w3.org/1999/xlink" width="48" height="48" viewBox="0 0 48 48">
<path d="M8 2h32q2.484 0 4.242 1.758t1.758 4.242v32q0 2.484-1.758 4.242t-4.242 1.758h-32q-2.484 0-4.242-1.758t-1.758-4.242v-32q0-2.484 1.758-4.242t4.242-1.758zM42 34.828l-10-10-17.172 17.172h25.172q0.828 0 1.414-0.586t0.586-1.414v-5.172zM40 6h-32q-0.828 0-1.414 0.586t-0.586 1.414v32q0 0.828 0.586 1.414t1.414 0.586h1.172l22.828-22.828 10 10v-21.172q0-0.828-0.586-1.414t-1.414-0.586zM16 10q2.484 0 4.242 1.758t1.758 4.242-1.758 4.242-4.242 1.758-4.242-1.758-1.758-4.242 1.758-4.242 4.242-1.758zM16 14q-0.828 0-1.414 0.586t-0.586 1.414 0.586 1.414 1.414 0.586 1.414-0.586 0.586-1.414-0.586-1.414-1.414-0.586z" fill="#000000"></path>
</svg>
